Coordinates
version=1
nRows=14
nColumns=40
inDegrees=yes

Units are S.I. units (second, meters, Newtons, ...)
Angles are in degrees.

endheader
time	pelvis_tilt	pelvis_list	pelvis_rotation	pelvis_tx	pelvis_ty	pelvis_tz	hip_flexion_r	hip_adduction_r	hip_rotation_r	knee_angle_r	knee_angle_r_beta	ankle_angle_r	subtalar_angle_r	mtp_angle_r	hip_flexion_l	hip_adduction_l	hip_rotation_l	knee_angle_l	knee_angle_l_beta	ankle_angle_l	subtalar_angle_l	mtp_angle_l	lumbar_extension	lumbar_bending	lumbar_rotation	arm_flex_r	arm_add_r	arm_rot_r	elbow_flex_r	pro_sup_r	wrist_flex_r	wrist_dev_r	arm_flex_l	arm_add_l	arm_rot_l	elbow_flex_l	pro_sup_l	wrist_flex_l	wrist_dev_l
      0.19000000	     -4.40160572	      1.47152400	      6.41951740	     -0.57105983	      0.83928845	     -0.39305675	     27.38802020	     -7.07454031	     -6.82783024	    -99.00459696	     -1.72795619	     -2.46435484	    -18.96460733	     24.52824996	     25.51007868	     -6.70348322	      3.80973188	    -49.93228947	     -0.87148285	     19.74708018	     15.80511291	     -1.45937915	    -16.07521178	     -7.12705764	    -11.13974877	    -23.42976815	    -21.27418093	      5.22634238	     81.54567661	     89.95437384	      0.00000000	      0.00000000	      0.89003635	     23.41896641	      1.35387798	     90.94525811	     89.95437384	      0.00000000	      0.00000000
      0.20000000	     -4.70642255	      0.81070866	      7.31896313	     -0.52865916	      0.83894129	     -0.39478797	     33.47376022	     -6.66919613	     -6.31944768	   -100.31984981	     -1.75091168	     -1.29109425	    -18.97042130	     24.13163548	     22.65957026	     -6.22352985	      2.06307134	    -50.31522586	     -0.87816636	     21.16921138	     15.52599681	     -2.18402936	    -16.23646623	     -6.20384851	    -13.48452728	    -24.23982368	    -22.31205967	      4.54028144	     78.63276579	     89.95437384	      0.00000000	      0.00000000	      4.40941791	     22.95522333	      0.23433002	     93.04587835	     89.95437384	      0.00000000	      0.00000000
      0.21000000	     -4.56905560	      0.28689051	      7.35661057	     -0.48388228	      0.83990472	     -0.39570346	     38.77236683	     -5.79380055	     -5.09150829	   -100.47644182	     -1.75364473	     -0.45842319	    -19.01061523	     24.11682020	     18.68686902	     -5.38387890	      1.11674031	    -49.79960825	     -0.86916713	     21.43717556	     15.36001521	     -2.46460474	    -16.50080174	     -5.48455036	    -15.02001070	    -25.41590788	    -23.63549444	      3.86108535	     76.99474883	     89.95437384	      0.00000000	      0.00000000	      7.32185990	     22.38700420	     -0.52707200	     95.76468412	     89.95437384	      0.00000000	      0.00000000
      0.22000000	     -4.63128060	     -0.72059755	      7.62936724	     -0.43924063	      0.84072759	     -0.39721355	     43.98610318	     -4.61116344	     -4.50734719	    -99.79455237	     -1.74174351	      0.81373439	    -19.02663521	     25.17461732	     14.96199800	     -3.77943458	      0.53116054	    -48.89207755	     -0.85332773	     20.32774907	     15.72200573	    -13.82490969	    -16.36437215	     -4.04244212	    -16.18363467	    -27.44782204	    -24.96503982	      2.34995002	     76.87985628	     89.95437384	      0.00000000	      0.00000000	     10.41650284	     21.66350727	     -1.81310240	     98.45788970	     89.95437384	      0.00000000	      0.00000000
      0.23000000	     -4.85751881	     -1.57740193	      8.07799147	     -0.39475937	      0.84223140	     -0.39964185	     48.98511427	     -4.02865220	     -4.16622878	    -98.15400095	     -1.71311049	      1.40418199	    -19.05889801	     25.14702224	     11.31764722	     -2.51216880	     -0.31491942	    -47.53887932	     -0.82970997	     19.04777362	     15.43503573	    -13.72510634	    -16.02384449	     -2.62110003	    -17.77967997	    -29.39288087	    -26.63462623	      1.19033470	     77.61410959	     89.95437384	      0.00000000	      0.00000000	     12.89731890	     21.06159411	     -2.65032469	    101.61117360	     89.95437384	      0.00000000	      0.00000000
      0.24000000	     -4.64706633	     -2.69987256	      8.69248504	     -0.34960084	      0.84550427	     -0.40201904	     52.77422493	     -3.42338245	     -4.46628819	    -95.34668864	     -1.66411365	      1.86279417	    -19.12302332	     25.49431463	      7.45126297	     -0.49115819	     -0.62887608	    -46.09928970	     -0.80458439	     15.97077222	     14.32001771	    -13.75214093	    -16.05400324	     -0.76840805	    -18.95862369	    -31.85010265	    -27.74449165	     -0.94285065	     79.00183974	     89.95437384	      0.00000000	      0.00000000	     15.58087598	     20.51545394	     -4.12306705	    104.41483776	     89.95437384	      0.00000000	      0.00000000
      0.25000000	     -4.56647979	     -3.25162008	      8.78591695	     -0.30319340	      0.84983133	     -0.40334628	     56.08809957	     -2.97570929	     -4.29796759	    -91.76527846	     -1.60160625	      2.02506232	    -19.15510725	     25.80995364	      3.55463891	      0.99067532	     -0.40914266	    -44.12565548	     -0.77013797	     11.57140276	     13.62271358	    -13.49078692	    -15.89274324	      0.21304840	    -20.02701046	    -33.87894635	    -28.81920324	     -2.35210358	     80.26630403	     89.95437384	      0.00000000	      0.00000000	     17.48626315	     20.31144991	     -5.28010722	    107.53297139	     89.95437384	      0.00000000	      0.00000000
      0.26000000	     -4.54074808	     -3.83421473	      8.70455454	     -0.25599105	      0.85460641	     -0.40454931	     58.70690438	     -2.43171566	     -4.32565308	    -87.30548367	     -1.52376815	      1.78203142	    -19.14692646	     26.04886807	     -0.17413891	      2.45816032	      0.02258288	    -41.93460758	     -0.73189697	      5.83420979	     13.07369791	    -12.85312788	    -15.59094784	      1.18720411	    -20.88904798	    -35.82502419	    -29.83115014	     -3.66871543	     81.63606893	     89.95437384	      0.00000000	      0.00000000	     18.87395096	     20.12825292	     -6.37765964	    110.72261505	     89.95437384	      0.00000000	      0.00000000
      0.27000000	     -4.64863070	     -4.39528944	      8.56442719	     -0.20832788	      0.85953109	     -0.40558705	     60.68078723	     -1.87202487	     -4.45661604	    -82.11967420	     -1.43325870	      1.01250799	    -19.06793549	     26.15900616	     -3.47539389	      3.81747616	      0.41538688	    -39.65948180	     -0.69218854	     -1.28796613	     12.81185390	    -11.82057398	    -15.08995060	      2.08413643	    -21.68321866	    -37.47698822	    -30.65968531	     -4.88400706	     82.90661968	     89.95437384	      0.00000000	      0.00000000	     19.74231329	     20.08347064	     -7.43210532	    113.96713512	     89.95437384	      0.00000000	      0.00000000
      0.28000000	     -4.38454387	     -5.00333439	      8.29271141	     -0.15929010	      0.86507154	     -0.40635417	     61.31221381	     -1.09964404	     -4.83613714	    -76.20774540	     -1.33007607	     -0.07872930	    -18.91169999	     26.08058731	     -7.10987152	      5.29388114	      1.13091674	    -36.83755256	     -0.64293658	     -9.81298072	     12.44159453	    -10.05276827	    -14.86548158	      3.05943369	    -22.25188188	    -38.94380251	    -31.38986777	     -5.90314913	     84.07195913	     89.95437384	      0.00000000	      0.00000000	     20.01687713	     20.21268622	     -8.41194408	    117.22049590	     89.95437384	      0.00000000	      0.00000000
      0.29000000	     -4.41729962	     -5.20014661	      8.03933381	     -0.10998948	      0.86984022	     -0.40726800	     61.49823984	     -0.64902391	     -4.95665671	    -69.86529559	     -1.21937944	     -1.67415357	    -18.61507159	     25.58442680	     -9.94968122	      6.06154956	      1.48304206	    -34.35385763	     -0.59958793	    -17.62684251	     10.31786447	      9.05920492	    -14.28319099	      3.58262921	    -22.88266444	    -40.19605227	    -31.89511934	     -6.73748188	     85.04985851	     89.95437384	      0.00000000	      0.00000000	     19.63028891	     20.42510517	     -9.48354384	    120.44203640	     89.95437384	      0.00000000	      0.00000000
      0.30000000	     -4.52156158	     -5.00934044	      7.82048229	     -0.06045504	      0.87378267	     -0.40875793	     61.03481849	     -0.47828260	     -4.80831135	    -63.20635754	     -1.10315905	     -3.84131805	    -18.04822729	     25.49653316	    -12.34056139	      5.94631263	      0.46074754	    -32.35640338	     -0.56472577	    -24.84871360	      9.82058377	     10.28032035	    -13.59991476	      3.74175556	    -23.45672186	    -41.27372465	    -32.20556512	     -7.63151606	     85.92439682	     89.95437384	      0.00000000	      0.00000000	     18.69243668	     20.40062272	    -10.34865763	    123.34230630	     89.95437384	      0.00000000	      0.00000000
      0.31000000	     -4.57996903	     -4.72428661	      7.47775780	     -0.01085594	      0.87702222	     -0.41009997	     59.93252336	     -0.25206563	     -4.67630678	    -56.37797922	     -0.98398136	     -6.63677900	    -17.11094735	     24.97308482	    -14.02864078	      5.49686647	     -0.73681484	    -31.95013160	     -0.55763499	    -28.47889484	      9.94789325	     11.47929445	    -12.96607655	      3.80405388	    -23.70131582	    -42.10362120	    -32.31409781	     -8.40980399	     86.59072465	     89.95437384	      0.00000000	      0.00000000	     17.42369686	     20.39204030	    -11.31074417	    125.85462152	     89.95437384	      0.00000000	      0.00000000
      0.32000000	     -4.80566512	     -4.19047746	      7.20037185	      0.03862674	      0.87910160	     -0.41148435	     58.66214921	     -0.30112679	     -4.50015579	    -49.99627572	     -0.87259963	     -9.19263209	    -15.35865642	     25.01328762	    -14.56628082	      4.49931529	     -2.44557248	    -33.21637982	     -0.57973519	    -29.58310125	      9.65434012	     11.94294229	    -12.13517930	      3.53629579	    -23.84121954	    -42.56056221	    -32.18279350	     -8.93358617	     86.88180371	     89.95437384	      0.00000000	      0.00000000	     15.84534365	     20.50133544	    -12.52876628	    127.78403784	     89.95437384	      0.00000000	      0.00000000
